<svg width="15" height="15" viewBox="0 0 15 15" fill="none" xmlns="http://www.w3.org/2000/svg">
<path d="M6.79447 10.4438L2.29822 5.30438C1.76759 4.69969 2.19884 3.75 3.00416 3.75H11.9967C12.1769 3.74985 12.3533 3.80164 12.5049 3.89919C12.6564 3.99674 12.7767 4.13591 12.8511 4.30002C12.9256 4.46414 12.9512 4.64625 12.9249 4.82454C12.8985 5.00283 12.8214 5.16975 12.7026 5.30531L8.20635 10.4428C8.11835 10.5435 8.00983 10.6242 7.88807 10.6795C7.76631 10.7348 7.63413 10.7634 7.50041 10.7634C7.36668 10.7634 7.2345 10.7348 7.11274 10.6795C6.99098 10.6242 6.88246 10.5435 6.79447 10.4428V10.4438Z" fill="black"/>
</svg>
