<svg width="27" height="25" viewBox="0 0 27 25" fill="none" xmlns="http://www.w3.org/2000/svg">
<g filter="url(#filter0_d_1_233)">
<path d="M13.4004 0.5C15.5566 0.5 17.3379 2.28125 17.3379 4.4375C17.3379 6.21875 14.7441 9.40625 13.7754 10.5938C13.5566 10.8125 13.2129 10.8125 12.9941 10.5938C12.0254 9.40625 9.46289 6.21875 9.46289 4.4375C9.46289 2.28125 11.2129 0.5 13.4004 0.5ZM13.4004 5.75C14.1191 5.75 14.7129 5.1875 14.7129 4.4375C14.7129 3.71875 14.1191 3.125 13.4004 3.125C12.6504 3.125 12.0879 3.71875 12.0879 4.4375C12.0879 5.1875 12.6504 5.75 13.4004 5.75ZM5.02539 7.25L8.71289 5.78125C8.86914 6.25 9.11914 6.71875 9.40039 7.21875V14.5L5.05664 16.4688C4.74414 16.625 4.40039 16.375 4.40039 16V8.1875C4.40039 7.78125 4.65039 7.40625 5.02539 7.25ZM13.4004 11.75C13.8379 11.75 14.2441 11.5625 14.5254 11.2188C15.1504 10.5 15.8066 9.6875 16.4004 8.8125V16.5L10.4004 14.5V8.8125C10.9629 9.6875 11.6191 10.5 12.2441 11.2188C12.5254 11.5625 12.9316 11.75 13.4004 11.75ZM21.7129 5.5625C22.0254 5.40625 22.4004 5.65625 22.4004 6.03125V13.8438C22.4004 14.25 22.1191 14.625 21.7441 14.7812L17.4004 16.5V7.5L21.7129 5.5625Z" fill="black"/>
</g>
<defs>
<filter id="filter0_d_1_233" x="0.400391" y="0.5" width="26" height="24.125" filterUnits="userSpaceOnUse" color-interpolation-filters="sRGB">
<feFlood flood-opacity="0" result="BackgroundImageFix"/>
<feColorMatrix in="SourceAlpha" type="matrix" values="0 0 0 0 0 0 0 0 0 0 0 0 0 0 0 0 0 0 127 0" result="hardAlpha"/>
<feOffset dy="4"/>
<feGaussianBlur stdDeviation="2"/>
<feComposite in2="hardAlpha" operator="out"/>
<feColorMatrix type="matrix" values="0 0 0 0 0 0 0 0 0 0 0 0 0 0 0 0 0 0 0.25 0"/>
<feBlend mode="normal" in2="BackgroundImageFix" result="effect1_dropShadow_1_233"/>
<feBlend mode="normal" in="SourceGraphic" in2="effect1_dropShadow_1_233" result="shape"/>
</filter>
</defs>
</svg>
