<svg width="18" height="19" viewBox="0 0 18 19" fill="none" xmlns="http://www.w3.org/2000/svg">
<g clip-path="url(#clip0_1_203)">
<path d="M14.5997 18.2599C15.0997 18.8599 15.9997 18.8599 16.4997 18.2599C17.0997 17.5599 17.0997 16.5599 16.5997 16.0599L13.4997 12.2599C14.4997 11.0599 15.0997 9.45991 15.0997 7.75991C14.9997 3.85991 11.7997 0.659912 7.79971 0.659912C3.79971 0.659912 0.699707 3.85991 0.699707 7.75991C0.699707 11.6599 3.89971 14.8599 7.79971 14.8599C9.09971 14.8599 10.2997 14.5599 11.2997 13.9599M2.89971 7.75991C2.89971 5.05991 5.09971 2.75991 7.89971 2.75991C10.5997 2.75991 12.8997 4.95991 12.8997 7.75991C12.8997 10.5599 10.6997 12.7599 7.89971 12.7599C5.09971 12.7599 2.89971 10.4599 2.89971 7.75991Z" fill="black"/>
</g>
<defs>
<clipPath id="clip0_1_203">
<rect width="17" height="18" fill="white" transform="translate(0.299805 0.659912)"/>
</clipPath>
</defs>
</svg>
